<?xml version="1.0" encoding="UTF-8" standalone="no"?>
<!-- Uploaded to: SVG Repo, www.svgrepo.com, Generator: SVG Repo Mixer Tools -->

<svg
   width="800px"
   height="800px"
   viewBox="0 0 24 24"
   fill="none"
   version="1.1"
   id="svg2"
   sodipodi:docname="copy.svg"
   xml:space="preserve"
   inkscape:version="1.3.2 (091e20e, 2023-11-25, custom)"
   xmlns:inkscape="http://www.inkscape.org/namespaces/inkscape"
   xmlns:sodipodi="http://sodipodi.sourceforge.net/DTD/sodipodi-0.dtd"
   xmlns="http://www.w3.org/2000/svg"
   xmlns:svg="http://www.w3.org/2000/svg"><defs
     id="defs2" /><sodipodi:namedview
     id="namedview2"
     pagecolor="#ffffff"
     bordercolor="#000000"
     borderopacity="0.25"
     inkscape:showpageshadow="2"
     inkscape:pageopacity="0.0"
     inkscape:pagecheckerboard="0"
     inkscape:deskcolor="#d1d1d1"
     inkscape:zoom="0.97125"
     inkscape:cx="362.93436"
     inkscape:cy="351.60875"
     inkscape:window-width="1920"
     inkscape:window-height="991"
     inkscape:window-x="-9"
     inkscape:window-y="-9"
     inkscape:window-maximized="1"
     inkscape:current-layer="svg2" /><path
     d="M20.9983 10C20.9862 7.82497 20.8897 6.64706 20.1213 5.87868C19.2426 5 17.8284 5 15 5H12C9.17157 5 7.75736 5 6.87868 5.87868C6 6.75736 6 8.17157 6 11V16C6 18.8284 6 20.2426 6.87868 21.1213C7.75736 22 9.17157 22 12 22H15C17.8284 22 19.2426 22 20.1213 21.1213C21 20.2426 21 18.8284 21 16V15"
     stroke="#1C274C"
     stroke-width="1.5"
     stroke-linecap="round"
     id="path1"
     style="stroke-width:1.2;stroke-dasharray:none;stroke:#161616;stroke-opacity:1" /><path
     d="M3 10V16C3 17.6569 4.34315 19 6 19M18 5C18 3.34315 16.6569 2 15 2H11C7.22876 2 5.34315 2 4.17157 3.17157C3.51839 3.82475 3.22937 4.69989 3.10149 6"
     stroke="#1C274C"
     stroke-width="1.5"
     stroke-linecap="round"
     id="path2"
     style="stroke-width:1.2;stroke-dasharray:none;stroke:#161616;stroke-opacity:1" /></svg>
