<?xml version="1.0" encoding="UTF-8" standalone="no"?>
<svg
   viewBox="0 0 256 250"
   width="256"
   height="250"
   fill="#24292f"
   preserveAspectRatio="xMidYMid"
   version="1.1"
   id="svg1"
   sodipodi:docname="github.svg"
   inkscape:version="1.4 (86a8ad7, 2024-10-11)"
   xmlns:inkscape="http://www.inkscape.org/namespaces/inkscape"
   xmlns:sodipodi="http://sodipodi.sourceforge.net/DTD/sodipodi-0.dtd"
   xmlns="http://www.w3.org/2000/svg"
   xmlns:svg="http://www.w3.org/2000/svg">
  <defs
     id="defs1" />
  <sodipodi:namedview
     id="namedview1"
     pagecolor="#ffffff"
     bordercolor="#000000"
     borderopacity="0.25"
     inkscape:showpageshadow="2"
     inkscape:pageopacity="0.0"
     inkscape:pagecheckerboard="0"
     inkscape:deskcolor="#d1d1d1"
     inkscape:zoom="2.1863742"
     inkscape:cx="106.34044"
     inkscape:cy="114.11587"
     inkscape:window-width="1920"
     inkscape:window-height="991"
     inkscape:window-x="-9"
     inkscape:window-y="-9"
     inkscape:window-maximized="1"
     inkscape:current-layer="svg1" />
  <path
     d="m 128.00087,15.613056 c -61.843945,0 -111.992631,50.139936 -111.992631,111.992634 0,49.48111 32.089139,91.4614 76.58749,106.26968 5.596964,1.0368 7.652191,-2.42969 7.652191,-5.38785 0,-2.6703 -0.105,-11.49228 -0.15224,-20.84972 -31.15646,6.77376 -37.730727,-13.21415 -37.730727,-13.21415 -5.09475,-12.94467 -12.43546,-16.38754 -12.43546,-16.38754 -10.160627,-6.95049 0.766444,-6.807 0.766444,-6.807 11.245548,0.78919 17.167112,11.5404 17.167112,11.5404 9.98914,17.12074 26.199947,12.17123 32.590481,9.30931 1.0053,-7.23746 3.90746,-12.1791 7.1106,-14.9754 -24.875297,-2.83129 -51.024498,-12.43458 -51.024498,-55.34667 0,-12.22723 4.374678,-22.218118 11.538651,-30.061041 -1.162789,-2.820793 -4.995882,-14.210705 1.08492,-29.63757 0,0 9.404683,-3.009779 30.806484,11.48003 8.933093,-2.481317 18.513633,-3.725476 28.031183,-3.768347 9.51755,0.04287 19.10597,1.286155 28.05569,3.768347 21.37555,-14.488934 30.76711,-11.479155 30.76711,-11.479155 6.09568,15.425115 2.26084,26.816777 1.09805,29.636695 7.18059,7.842923 11.52552,17.833811 11.52552,30.061041 0,43.01446 -26.19907,52.48564 -51.13736,55.25831 4.01683,3.47524 7.59619,10.29099 7.59619,20.73947 0,14.98415 -0.12949,27.04426 -0.12949,30.73299 0,2.98091 2.01585,6.47277 7.69244,5.3721 44.47385,-14.82403 76.52274,-56.78857 76.52274,-106.25305 0,-61.853578 -50.14169,-111.993514 -111.99089,-111.993514 z M 57.953528,175.14882 c -0.246732,0.55646 -1.122542,0.72357 -1.919609,0.34122 -0.812815,-0.36484 -1.268656,-1.12341 -1.006176,-1.68162 0.241483,-0.57309 1.119043,-0.7332 1.929233,-0.3491 0.81369,0.36572 1.277406,1.13129 0.996552,1.6895 z m 5.508595,4.91539 c -0.533711,0.49521 -1.578384,0.2651 -2.287082,-0.51709 -0.732321,-0.78044 -0.869686,-1.82512 -0.328101,-2.32733 0.55121,-0.49521 1.56351,-0.26335 2.297581,0.51709 0.733196,0.79007 0.874936,1.82686 0.317602,2.32733 z m 3.779722,6.28903 c -0.686825,0.47684 -1.808492,0.0298 -2.502316,-0.96592 -0.68595,-0.99568 -0.68595,-2.18997 0.01487,-2.66856 0.695574,-0.47859 1.800617,-0.0481 2.503191,0.94056 0.684199,1.0123 0.684199,2.20659 -0.01662,2.6948 z m 6.39053,7.28384 c -0.61333,0.6772 -1.921359,0.49522 -2.878539,-0.42871 -0.979053,-0.90294 -1.251158,-2.18384 -0.635203,-2.86104 0.621204,-0.67895 1.936233,-0.48822 2.900412,0.42871 0.971178,0.90119 1.268656,2.19172 0.61333,2.86104 z m 8.261142,2.45857 c -0.27123,0.87756 -1.531138,1.27653 -2.798919,0.90381 -1.266907,-0.3841 -2.095471,-1.41127 -1.83999,-2.29758 0.263356,-0.88368 1.528513,-1.2984 2.805919,-0.89943 1.265157,0.38147 2.096345,1.40164 1.83299,2.29408 z m 9.400308,1.0438 c 0.0315,0.92306 -1.043798,1.68863 -2.37545,1.70613 -1.338652,0.0297 -2.422697,-0.71745 -2.437571,-1.62738 0,-0.93181 1.051673,-1.69038 2.391199,-1.71313 1.331652,-0.0262 2.421822,0.7157 2.421822,1.63438 z m 9.234945,-0.35435 c 0.15924,0.90119 -0.765568,1.82687 -2.088471,2.0736 -1.299279,0.23711 -2.50319,-0.31935 -2.668553,-1.21266 -0.160988,-0.92393 0.781317,-1.84962 2.078847,-2.08847 1.324652,-0.23011 2.509317,0.31147 2.678177,1.22753 z"
     id="path1"
     style="fill:#161616;fill-opacity:1;stroke-width:0.999999" />
</svg>
