<?xml version="1.0" encoding="UTF-8"?>
<svg id="svg1" xmlns="http://www.w3.org/2000/svg" version="1.1" xmlns:inkscape="http://www.inkscape.org/namespaces/inkscape" xmlns:sodipodi="http://sodipodi.sourceforge.net/DTD/sodipodi-0.dtd" xmlns:svg="http://www.w3.org/2000/svg" viewBox="0 0 256 250">
  <!-- Generator: Adobe Illustrator 29.5.0, SVG Export Plug-In . SVG Version: 2.1.0 Build 137)  -->
  <defs>
    <style>
      .st0 {
        fill: #161616;
      }
    </style>
  </defs>
  <sodipodi:namedview id="namedview1" bordercolor="#000000" borderopacity="0.25" inkscape:current-layer="svg1" inkscape:cx="106.34044" inkscape:cy="114.11587" inkscape:deskcolor="#d1d1d1" inkscape:pagecheckerboard="0" inkscape:pageopacity="0.0" inkscape:showpageshadow="2" inkscape:window-height="991" inkscape:window-maximized="1" inkscape:window-width="1920" inkscape:window-x="-9" inkscape:window-y="-9" inkscape:zoom="2.1863742" pagecolor="#ffffff"/>
  <path id="path1" class="st0" d="M128,15.61c-61.84,0-111.99,50.14-111.99,111.99,0,49.48,32.09,91.46,76.59,106.27,5.6,1.04,7.65-2.43,7.65-5.39,0-2.67-.11-11.49-.15-20.85-31.16,6.77-37.73-13.21-37.73-13.21-5.09-12.94-12.44-16.39-12.44-16.39-10.16-6.95.77-6.81.77-6.81,11.25.79,17.17,11.54,17.17,11.54,9.99,17.12,26.2,12.17,32.59,9.31,1.01-7.24,3.91-12.18,7.11-14.98-24.88-2.83-51.02-12.43-51.02-55.35,0-12.23,4.37-22.22,11.54-30.06-1.16-2.82-5-14.21,1.08-29.64,0,0,9.4-3.01,30.81,11.48,8.93-2.48,18.51-3.73,28.03-3.77,9.52.04,19.11,1.29,28.06,3.77,21.38-14.49,30.77-11.48,30.77-11.48,6.1,15.43,2.26,26.82,1.1,29.64,7.18,7.84,11.53,17.83,11.53,30.06,0,43.01-26.2,52.49-51.14,55.26,4.02,3.48,7.6,10.29,7.6,20.74,0,14.98-.13,27.04-.13,30.73,0,2.98,2.02,6.47,7.69,5.37,44.47-14.82,76.52-56.79,76.52-106.25,0-61.85-50.14-111.99-111.99-111.99h0ZM57.95,175.15c-.25.56-1.12.72-1.92.34-.81-.36-1.27-1.12-1.01-1.68.24-.57,1.12-.73,1.93-.35.81.37,1.28,1.13,1,1.69h0ZM63.46,180.06c-.53.5-1.58.27-2.29-.52-.73-.78-.87-1.83-.33-2.33.55-.5,1.56-.26,2.3.52.73.79.87,1.83.32,2.33ZM67.24,186.35c-.69.48-1.81.03-2.5-.97-.69-1-.69-2.19.01-2.67.7-.48,1.8-.05,2.5.94.68,1.01.68,2.21-.02,2.69h0ZM73.63,193.64c-.61.68-1.92.5-2.88-.43-.98-.9-1.25-2.18-.64-2.86.62-.68,1.94-.49,2.9.43.97.9,1.27,2.19.61,2.86ZM81.89,196.1c-.27.88-1.53,1.28-2.8.9-1.27-.38-2.1-1.41-1.84-2.3.26-.88,1.53-1.3,2.81-.9,1.27.38,2.1,1.4,1.83,2.29h0ZM91.29,197.14c.03.92-1.04,1.69-2.38,1.71-1.34.03-2.42-.72-2.44-1.63,0-.93,1.05-1.69,2.39-1.71,1.33-.03,2.42.72,2.42,1.63ZM100.53,196.79c.16.9-.77,1.83-2.09,2.07-1.3.24-2.5-.32-2.67-1.21-.16-.92.78-1.85,2.08-2.09,1.32-.23,2.51.31,2.68,1.23h0Z"/>
</svg>