<?xml version="1.0" encoding="UTF-8" standalone="no"?>
<!-- Uploaded to: SVG Repo, www.svgrepo.com, Generator: SVG Repo Mixer Tools -->

<svg
   width="800px"
   height="800px"
   viewBox="0 0 24 24"
   fill="none"
   version="1.1"
   id="svg1"
   sodipodi:docname="hidden.svg"
   xml:space="preserve"
   inkscape:version="1.3.2 (091e20e, 2023-11-25, custom)"
   xmlns:inkscape="http://www.inkscape.org/namespaces/inkscape"
   xmlns:sodipodi="http://sodipodi.sourceforge.net/DTD/sodipodi-0.dtd"
   xmlns="http://www.w3.org/2000/svg"
   xmlns:svg="http://www.w3.org/2000/svg"><defs
     id="defs1" /><sodipodi:namedview
     id="namedview1"
     pagecolor="#ffffff"
     bordercolor="#000000"
     borderopacity="0.25"
     inkscape:showpageshadow="2"
     inkscape:pageopacity="0.0"
     inkscape:pagecheckerboard="0"
     inkscape:deskcolor="#d1d1d1"
     inkscape:zoom="0.97124998"
     inkscape:cx="481.33849"
     inkscape:cy="514.28572"
     inkscape:window-width="1920"
     inkscape:window-height="991"
     inkscape:window-x="-9"
     inkscape:window-y="-9"
     inkscape:window-maximized="1"
     inkscape:current-layer="svg1" /><g
     style="fill:none;stroke:#161616;stroke-opacity:1"
     id="g2" /><g
     style="fill:none;display:inline;stroke:#161616;stroke-opacity:1"
     id="g5" /><path
     d="M 9,4.45962 C 9.91153,4.16968 10.9104,4 12,4 16.1819,4 19.028,6.49956 20.7251,8.70433 21.575,9.80853 22,10.3606 22,12 c 0,1.6394 -0.425,2.1915 -1.2749,3.2957 -0.244409,0.317511 -0.512649,0.641139 -0.805277,0.962536 m -5.555206,3.460687 C 13.629526,19.898709 12.841828,20 12,20 7.81811,20 4.97196,17.5004 3.27489,15.2957 2.42496,14.1915 2,13.6394 2,12 2,10.3606 2.42496,9.80853 3.27489,8.70433 3.75612,8.07914 4.32973,7.43025 5,6.82137"
     stroke="#1C274C"
     stroke-width="1.5"
     stroke-linecap="round"
     id="path1"
     style="display:inline;fill:none;stroke:#161616;stroke-width:1.2;stroke-dasharray:none;stroke-opacity:1"
     sodipodi:nodetypes="cscscccscscc" /><path
     id="path2-9"
     style="display:inline;fill:none;stroke:#161616;stroke-width:1.2;stroke-dasharray:none;stroke-opacity:1;stroke-linecap:round"
     d="M 9.0684375,11.362793 C 9.0239917,11.56822 9,11.781267 9,12 c 0,1.651966 1.335198,2.991685 2.985293,2.999648"
     sodipodi:nodetypes="csc" /><path
     id="path6"
     style="display:none;fill:none;stroke:#f2f2f2;stroke-width:1.2;stroke-dasharray:none;stroke-opacity:1"
     d="m 9.0684375,11.362793 2.9168555,3.636855 C 11.990219,14.999672 11.995068,15 12,15 c 1.656898,0 3,-1.343102 3,-3 0,-1.656898 -1.343102,-3 -3,-3 -1.438165,0 -2.6393323,1.012112 -2.9315625,2.362793 z" /><path
     style="display:inline;fill:#ff0000;stroke:#161616;stroke-width:1.2;stroke-linecap:round;stroke-linejoin:round;stroke-miterlimit:7.7;paint-order:markers stroke fill;stroke-opacity:1"
     d="M 4.6023167,2.6872588 20.169885,22.054055"
     id="path4" /><rect
     style="display:none;fill:#ff0000;stroke:none;stroke-width:1.2;stroke-linecap:round;stroke-linejoin:round;stroke-miterlimit:7.7;paint-order:markers stroke fill"
     id="rect6"
     width="11.117138"
     height="5.9407897"
     x="10.884748"
     y="-5.9059052"
     rx="0"
     ry="0"
     transform="rotate(51.26967)" /><path
     id="path7"
     style="display:inline;fill:none;stroke:#161616;stroke-width:1.2;stroke-linecap:round;stroke-dasharray:none;stroke-opacity:1"
     d="m 14.896685,12.780584 c 0.05449,-0.202994 0.08891,-0.414607 0.09968,-0.633072 0.08123,-1.649969 -1.186481,-3.0537198 -2.834187,-3.1428094"
     sodipodi:nodetypes="csc" /></svg>
