<?xml version="1.0" encoding="UTF-8" standalone="no"?>
<!-- Created with Inkscape (http://www.inkscape.org/) -->

<svg
   width="172.80664mm"
   height="66.227959mm"
   viewBox="0 0 172.80664 66.227957"
   version="1.1"
   id="svg5"
   xml:space="preserve"
   xmlns="http://www.w3.org/2000/svg"
   xmlns:svg="http://www.w3.org/2000/svg"><defs
     id="defs2" /><g
     id="layer1"
     transform="translate(-16.049835,-135.48817)"><rect
       style="fill:#ffb373;fill-opacity:1;stroke:none;stroke-width:1.32292;stroke-linecap:round;stroke-linejoin:round;stroke-miterlimit:7.7;stroke-dasharray:none;stroke-opacity:1;paint-order:fill markers stroke"
       id="rect4"
       width="168.87749"
       height="41.649448"
       x="19.979"
       y="148.78299"
       rx="7.1362858"
       ry="7.1362853" /><rect
       style="fill:#ffb373;fill-opacity:1;stroke:none;stroke-width:1.32292;stroke-linecap:round;stroke-linejoin:round;stroke-miterlimit:7.7;stroke-dasharray:none;stroke-opacity:1;paint-order:fill markers stroke"
       id="rect3"
       width="166.79912"
       height="31.825378"
       x="12.519563"
       y="139.67786"
       rx="7.1362858"
       ry="7.1362858"
       transform="rotate(-1.3801094)" /><g
       id="path1"
       transform="matrix(0.77491238,0,0,0.77491238,22.135581,-14.875477)"
       style="stroke-width:1.29048" /><rect
       style="fill:none;stroke:#000000;stroke-width:1.32292;stroke-linecap:round;stroke-linejoin:round;stroke-miterlimit:7.7;stroke-dasharray:none;stroke-opacity:1;paint-order:fill markers stroke"
       id="rect1"
       width="156.37415"
       height="43.030617"
       x="22.227961"
       y="140.97836"
       rx="7.1362858"
       ry="7.1362858" /><path
       style="-inkscape-font-specification:'Banteng Story';stroke-width:1.32292;stroke-linecap:round;stroke-linejoin:round;stroke-miterlimit:7.7;paint-order:fill markers stroke"
       d="m 46.23807,169.69281 c -0.332232,-1.47994 -1.419537,-2.74847 -2.839073,-3.29212 -1.691362,-0.72487 -3.624348,-0.51345 -5.406319,-0.39264 1.781971,-1.93298 3.654551,-3.95658 4.560638,-6.46342 0.362435,-1.0571 0.453043,-2.44643 -0.483247,-3.23171 -1.057101,-0.78527 -2.50684,-0.39263 -3.624348,0.0906 -1.057101,0.51345 -2.204811,1.17791 -2.688058,2.29542 -0.362434,0.66447 0.362435,1.60076 1.087305,1.35913 0.543652,-0.15101 0.332232,-0.75507 0.302029,-1.17791 1.087304,-0.9967 2.597449,-1.81217 4.107594,-1.51015 0.151015,0.69467 0.120812,1.38934 -0.181217,2.0236 -0.966493,2.26522 -2.718261,4.07739 -4.349218,5.85936 -0.362435,0.45304 -0.875884,0.93629 -0.785275,1.57055 0.0302,0.57386 0.664464,0.81548 1.177913,0.75507 1.842377,-0.15101 3.805565,-0.57385 5.617739,0.12082 0.996696,0.33223 1.781971,1.17791 2.084,2.20481 0.93629,3.41293 -1.510145,7.36951 -5.043884,7.91316 -4.439826,0.30203 -8.638029,-1.32893 -12.926841,-2.11421 -0.694667,-0.15101 -1.057102,0.90609 -0.392638,1.20812 0.845681,0.39264 1.812174,0.54365 2.748464,0.78528 3.533739,0.87588 7.158087,1.84237 10.842841,1.54034 4.288812,-0.66446 7.278899,-5.37611 6.191595,-9.54411 z m 25.430847,-21.8367 c -2.59745,-1.72156 -5.94997,-1.57055 -8.879655,-1.0571 -4.107594,0.87588 -8.12458,2.59745 -11.386493,5.2553 -1.389333,1.20812 -2.839073,2.80887 -2.748464,4.77206 0.151015,1.93299 2.114203,3.20151 3.926377,3.29212 0.573855,-0.0906 0.906087,-0.93629 0.271826,-1.20812 -0.93629,-0.36243 -2.144406,-0.54365 -2.627652,-1.60075 -0.483247,-1.51015 0.755072,-2.77867 1.751768,-3.71496 3.110899,-2.77867 7.067479,-4.43982 11.114667,-5.31571 2.476636,-0.45304 5.255306,-0.63426 7.520526,0.69467 1.57055,0.90609 2.20481,2.80887 2.02359,4.53043 -0.30203,3.23171 -1.72156,6.252 -3.38272,9.00047 -2.74847,4.47003 -6.342613,8.42661 -10.540816,11.56771 -0.392638,0.30203 -0.906087,0.21142 -1.359131,0.24162 -1.117507,-0.0302 -2.235014,0.0604 -3.382725,0.18122 0.785276,-6.31241 1.721566,-12.59461 2.355827,-18.90702 0.0302,-0.39263 -0.0302,-0.78527 -0.181218,-1.14771 -0.42284,-0.24162 -0.966493,-0.18121 -1.14771,0.30203 -0.785275,6.64464 -1.751768,13.25908 -2.567246,19.93392 -1.570551,0.63426 -3.53374,1.35913 -4.137798,3.11089 -0.332232,1.23832 1.14771,1.93299 2.174609,1.75177 2.778667,-0.33223 5.285508,-1.69136 7.580928,-3.1713 0.453043,-0.33223 0.996696,-0.54365 1.540348,-0.75507 0.271826,-0.36244 0.543652,-0.72487 0.906087,-1.0269 3.835765,-3.02029 7.158085,-6.73525 9.785735,-10.87305 1.87258,-2.99008 3.44314,-6.3124 3.83577,-9.87635 0.27183,-2.23501 -0.51345,-4.68144 -2.44643,-5.98017 z m -19.480873,29.84047 c -0.815478,0.18121 -1.600753,0.33223 -2.416232,0.39263 0.604058,-0.81547 1.510145,-1.32892 2.416232,-1.75176 0,0.45304 0,0.90608 0,1.35913 z m 1.359131,-0.54366 c 0.09061,-0.39263 0.181217,-0.75507 0.241623,-1.14771 0.815478,-0.0604 1.600754,-0.15101 2.386029,-0.21142 -0.845681,0.48325 -1.721565,0.93629 -2.627652,1.35913 z m 28.813562,-3.50353 c -0.66446,-0.51345 -1.41953,-0.84568 -2.1444,-1.29873 -0.0302,-1.0571 0.15101,-2.1142 0.15101,-3.1713 -0.12081,-0.75507 -1.17791,-0.84568 -1.57055,-0.24163 -1.23832,1.51015 -2.02359,3.32232 -3.02029,5.01369 0.0302,-1.41954 0.18122,-2.80887 0.0302,-4.22841 -0.0302,-0.54365 -0.45304,-1.11751 -1.0571,-1.0873 -0.60406,0.12081 -0.96649,0.66446 -1.29872,1.1175 -1.38934,2.084 -2.44644,4.31902 -3.74516,6.43322 0.0906,-1.20812 0.0906,-2.44643 0.51345,-3.59414 0.24162,-0.42284 0.18121,-0.90609 0.15101,-1.35913 -0.18122,-0.0604 -0.48324,-0.18122 -0.66446,-0.24163 -0.15102,0.0604 -0.45305,0.18122 -0.60406,0.24163 -0.54365,1.69136 -0.72487,3.50353 -0.87588,5.2553 -0.0302,0.75507 0,1.87258 0.93629,2.0538 0.69466,0.0604 1.14771,-0.60406 1.47994,-1.11751 1.32893,-2.084 2.41623,-4.34922 3.74516,-6.43322 0.0302,1.54035 -0.21142,3.0807 0.0604,4.56064 0.21142,0.75507 1.23832,0.9967 1.72157,0.36243 1.0571,-1.23831 1.69136,-2.77866 2.50684,-4.1982 -0.0906,1.66116 1.51014,2.47664 2.83907,2.99009 0.63426,0.33223 1.41954,-0.51345 0.84568,-1.0571 z m 11.23547,-28.54174 c -0.24163,-0.45305 -0.9665,-0.54366 -1.23832,-0.12081 -0.36244,0.54365 -0.48325,1.17791 -0.66447,1.78197 -1.78197,6.3124 -2.92968,12.80603 -4.74185,19.11843 -0.33223,0.81548 -0.30203,1.93299 -1.11751,2.47664 -1.96319,1.38933 -3.56394,3.26191 -4.53043,5.49693 -0.36244,0.87588 -0.63426,1.87258 -0.30203,2.80887 0.15101,0.60406 0.84568,1.0571 1.47994,0.87588 0.90609,-0.21142 1.57055,-0.99669 2.084,-1.72156 1.29873,-1.90279 2.0538,-4.0774 2.80887,-6.2218 0,1.47994 -0.12081,3.08069 0.60406,4.47003 0.54365,1.17791 2.38603,1.29872 3.1411,0.24162 -0.36244,-0.72487 -1.14771,-0.81548 -1.87258,-0.84568 -0.39264,-1.17791 -0.45304,-2.41623 -0.45304,-3.65455 0.18121,-0.0604 0.54365,-0.21142 0.75507,-0.27183 0.15101,-0.75507 -0.0604,-1.47994 -0.60406,-2.02359 0.72487,-6.82586 2.47664,-13.47049 4.1982,-20.08493 0.21142,-0.75507 0.54366,-1.51014 0.45305,-2.32562 z m -11.32609,30.98817 c 0.21142,-2.29542 1.75177,-4.10759 3.26191,-5.73855 -0.78527,2.0538 -1.51014,4.31902 -3.26191,5.73855 z m 20.205713,-4.07739 c -1.96319,1.0269 -3.714961,2.38603 -5.647943,3.44313 0.54365,-2.17461 0.99669,-4.34922 1.47994,-6.52383 0.0604,-0.63426 0.362442,-1.38933 -0.0604,-1.96318 -0.87589,-0.54366 -1.41954,0.51345 -1.87258,1.0571 -1.60076,-0.30203 -2.77867,0.96649 -3.83577,1.96319 -1.29873,1.38933 -2.59745,2.92968 -2.89948,4.86266 -0.18122,0.87589 0.30203,2.0236 1.32893,2.084 0.93629,0.12082 1.72156,-0.60405 2.26521,-1.26852 1.26853,-1.66116 2.23502,-3.47333 3.26192,-5.2553 -0.48325,2.1444 -0.9967,4.25861 -1.51015,6.40301 -2.44643,2.23502 -4.74185,4.65125 -6.88626,7.18829 -2.92968,3.53374 -5.82916,7.36951 -6.85606,11.93015 -0.33223,1.57055 -0.69466,3.26191 -0.15101,4.80226 0.45304,1.11751 1.84238,1.17791 2.74846,0.66446 2.74847,-1.32893 4.71165,-3.83577 6.13119,-6.46342 2.53704,-4.80226 4.34922,-9.93675 5.76875,-15.16185 0.33224,-0.84569 0.24163,-2.0236 1.11751,-2.56725 1.963192,-1.26852 3.956583,-2.47664 5.949973,-3.71496 0.27183,-0.21142 0.57386,-0.42284 0.75508,-0.72487 0.12081,-0.60405 -0.57386,-1.14771 -1.08731,-0.75507 z m -10.420003,2.74846 c -0.24162,0.36244 -0.63426,0.60406 -1.0571,0.69467 0.45304,-2.53704 2.35583,-4.56064 4.34922,-6.04058 -0.9967,1.84238 -1.99339,3.68476 -3.29212,5.34591 z m -3.1713,19.11844 c -1.44974,2.65786 -3.38273,5.43652 -6.37282,6.49362 -0.45304,-1.47994 -0.0906,-3.02029 0.24163,-4.47003 0.93629,-3.74516 3.26191,-6.94666 5.61774,-9.93675 1.84237,-2.26522 3.83577,-4.43983 5.91977,-6.49362 -1.32893,4.98348 -3.0807,9.81594 -5.40632,14.40678 z"
       id="text1"
       aria-label="3Dmdg" /><path
       id="path2"
       style="fill:none;stroke:#000000;stroke-width:1.32292;stroke-linecap:round;stroke-linejoin:round;stroke-miterlimit:7.7;paint-order:fill markers stroke"
       d="m 152.96531,152.57635 c 8.97236,-3.68577 16.87542,3.1979 16.87542,10.91545 0,7.71755 -6.2563,13.97385 -13.97385,13.97386 -7.71755,0 -13.97386,-6.25631 -13.97386,-13.97386 0,-7.71755 5.78579,-17.26753 17.8949,-14.83649" /><path
       style="fill:none;fill-opacity:1;stroke:#000000;stroke-width:1.32292;stroke-linecap:round;stroke-linejoin:round;stroke-miterlimit:7.7;stroke-dasharray:none;stroke-opacity:1;paint-order:fill markers stroke"
       d="m 145.55282,161.71734 c 0,0 7.83161,3.96809 9.13678,11.35478 13.02853,-29.99104 24.57396,-35.08816 24.57396,-35.08816"
       id="path3" /></g></svg>
