<?xml version="1.0" encoding="UTF-8" standalone="no"?>
<!-- Created with Inkscape (http://www.inkscape.org/) -->

<svg
   width="115.48221mm"
   height="138.35085mm"
   viewBox="0 0 115.48221 138.35085"
   version="1.1"
   id="svg5"
   xml:space="preserve"
   inkscape:version="1.2.2 (b0a8486541, 2022-12-01)"
   sodipodi:docname="new logo.svg"
   xmlns:inkscape="http://www.inkscape.org/namespaces/inkscape"
   xmlns:sodipodi="http://sodipodi.sourceforge.net/DTD/sodipodi-0.dtd"
   xmlns="http://www.w3.org/2000/svg"
   xmlns:svg="http://www.w3.org/2000/svg"><sodipodi:namedview
     id="namedview7"
     pagecolor="#ffffff"
     bordercolor="#000000"
     borderopacity="0.25"
     inkscape:showpageshadow="2"
     inkscape:pageopacity="0.0"
     inkscape:pagecheckerboard="0"
     inkscape:deskcolor="#d1d1d1"
     inkscape:document-units="mm"
     showgrid="false"
     inkscape:zoom="0.48882427"
     inkscape:cx="328.33885"
     inkscape:cy="628.03756"
     inkscape:window-width="1920"
     inkscape:window-height="974"
     inkscape:window-x="-11"
     inkscape:window-y="-11"
     inkscape:window-maximized="1"
     inkscape:current-layer="layer2" /><defs
     id="defs2" /><g
     inkscape:groupmode="layer"
     id="layer2"
     inkscape:label="color"
     transform="translate(-47.873902,-73.92478)"><path
       id="rect361"
       style="fill:#ffc600;fill-opacity:1;stroke:none;stroke-width:2.64583;stroke-linecap:round;stroke-linejoin:round"
       d="m 132.42525,80.565079 28.32215,-4.018686 -17.4143,51.477447 -8.93218,-1.65898 -19.20605,58.49984 -3.30317,-5.17002 2.68376,-79.37646 10.88899,1.8115 z"
       sodipodi:nodetypes="ccccccccc"
       inkscape:label="bolt" /><path
       id="rect2296"
       style="fill:#00adb5;fill-opacity:1;stroke-width:2.64583;stroke-linecap:round;stroke-linejoin:round"
       inkscape:label="cube"
       d="m 48.606957,114.05412 46.310568,26.79124 4.018686,68.31765 -44.205543,-32.53222 z"
       sodipodi:nodetypes="ccccc"
       inkscape:export-filename="..\..\Users\D\Desktop\new logo.svg"
       inkscape:export-xdpi="96"
       inkscape:export-ydpi="96" /></g><g
     inkscape:label="Layer 1"
     inkscape:groupmode="layer"
     id="layer1"
     transform="translate(-47.873902,-73.92478)"><path
       style="fill:#000000;stroke-width:0.155681"
       d="m 98.953089,212.23989 c -0.187087,-0.049 -4.144772,-3.06653 -8.794857,-6.70558 -14.99459,-11.73444 -27.685835,-21.64674 -30.184697,-23.57531 -3.466948,-2.67572 -4.34111,-3.36141 -5.191323,-4.07208 -0.941393,-0.78689 -0.947879,-0.79796 -0.940736,-1.60586 0.008,-0.90097 0.174389,-1.09877 0.926896,-1.10163 0.346901,-0.001 0.832067,0.28841 1.886039,1.1263 0.780447,0.62045 2.003671,1.58346 2.718275,2.14002 0.714604,0.55656 2.012023,1.57238 2.883154,2.25738 0.871131,0.68499 2.302839,1.8059 3.181575,2.4909 3.389686,2.64235 4.921291,3.84244 5.499566,4.30918 0.330258,0.26657 1.73139,1.36012 3.113628,2.43013 1.382236,1.07 2.968525,2.30857 3.525086,2.75237 0.556561,0.4438 1.635003,1.29199 2.39654,1.88487 0.761536,0.59288 2.095305,1.63841 2.963933,2.32341 0.868627,0.685 2.300546,1.8059 3.18204,2.4909 0.881496,0.685 2.209877,1.72209 2.95196,2.30466 0.742082,0.58256 1.944722,1.52534 2.672533,2.09508 3.035007,2.37581 4.324614,3.4124 5.075468,4.07966 2.332403,2.07272 2.558601,2.23264 2.914607,2.06058 0.186383,-0.0901 12.143424,-6.77867 26.571194,-14.86352 l 26.23231,-14.69972 0.11986,-1.54175 c 0.0659,-0.84796 0.54153,-10.78922 1.05692,-22.09169 0.51539,-11.30247 1.14128,-24.85842 1.39087,-30.12435 0.35345,-7.4571 0.41236,-9.61374 0.26637,-9.7523 -0.10309,-0.0978 -1.02811,-0.49589 -2.05561,-0.88455 -1.0275,-0.38866 -2.12864,-0.81652 -2.44698,-0.95079 -0.31835,-0.13428 -0.66863,-0.24376 -0.77841,-0.2433 -0.18221,7.7e-4 -1.47835,3.36846 -1.34529,3.49539 0.0308,0.0293 0.72146,-0.21633 1.53489,-0.54594 0.81344,-0.32961 1.66077,-0.60284 1.88297,-0.60718 0.8039,-0.0157 1.27211,1.10357 0.70259,1.67959 -0.1406,0.14219 -1.35783,0.71472 -2.70497,1.27228 l -2.44933,1.01375 -1.24545,3.66407 c -1.92239,5.65558 -1.88681,5.57214 -2.50131,5.86518 -0.53107,0.25324 -0.5459,0.24966 -4.50082,-1.08716 -2.1824,-0.73768 -3.99702,-1.29342 -4.03249,-1.23497 -0.0355,0.0584 -2.84638,8.72324 -6.24646,19.25508 -3.40008,10.53185 -7.60801,23.56238 -9.35095,28.95674 -3.25739,10.08154 -3.36585,10.35281 -4.13937,10.35281 -0.16566,0 -0.47888,-0.17768 -0.69605,-0.39486 -0.34524,-0.34524 -0.38112,-0.47727 -0.28552,-1.05084 0.0957,-0.57417 2.9556,-9.55934 5.21356,-16.37982 0.4252,-1.28437 2.07472,-6.3985 3.66561,-11.36474 1.59089,-4.96624 3.72276,-11.58659 4.7375,-14.71189 3.57642,-11.01507 5.00191,-15.49784 5.15598,-16.21412 0.2775,-1.29016 0.99953,-1.24582 5.66366,0.3478 2.02602,0.69224 3.71344,1.22887 3.7498,1.1925 0.0364,-0.0364 0.72192,-2.02139 1.52345,-4.41117 0.80152,-2.38978 2.13491,-6.30664 2.96309,-8.70414 0.82818,-2.39749 2.16138,-6.28563 2.96266,-8.64031 0.80129,-2.35469 1.91092,-5.57729 2.46586,-7.161348 0.55493,-1.584058 1.32763,-3.790842 1.7171,-4.903964 0.38948,-1.113122 1.47927,-4.335727 2.42177,-7.161344 0.9425,-2.825617 2.14018,-6.391024 2.66152,-7.923127 0.52133,-1.532102 0.91868,-2.814835 0.883,-2.850517 -0.0601,-0.06011 -8.35665,1.065947 -15.82193,2.147453 -1.75531,0.254294 -5.18346,0.739344 -7.61813,1.077889 -2.43466,0.338545 -4.47695,0.66919 -4.53842,0.734769 -0.0615,0.06558 -0.56724,1.730536 -1.12395,3.699906 -0.55672,1.969369 -1.62156,5.68237 -2.36633,8.251113 -0.74477,2.568743 -1.51858,5.265923 -1.71958,5.993733 -1.19795,4.337757 -1.39775,4.712897 -2.51005,4.712897 -0.33014,0 -2.46629,-0.60503 -4.747,-1.34452 -2.2807,-0.73948 -4.28878,-1.34452 -4.4624,-1.34452 -0.64691,0 -0.76747,0.34985 -0.87009,2.52472 -0.15231,3.22823 -0.7955,20.58525 -1.64869,44.49106 -1.17774,32.99996 -1.19036,33.2884 -1.47468,33.72234 -0.33612,0.51298 -1.05851,0.49811 -1.58935,-0.0327 -0.40192,-0.40192 -0.40399,-0.41667 -0.31045,-2.21846 0.27047,-5.20961 1.54599,-42.84942 1.45515,-42.94026 -0.10607,-0.10607 -0.81803,0.16781 -7.7316,2.97416 -2.01218,0.81678 -3.875334,1.48601 -4.140343,1.48717 -0.83085,0.004 -1.300464,-0.93285 -0.802536,-1.6004 0.153572,-0.20589 4.651319,-2.09222 12.512969,-5.24788 0.40447,-0.16235 0.36172,0.57732 0.98976,-17.12454 0.25062,-7.06404 0.49475,-13.59104 0.5425,-14.50443 l 0.0868,-1.66072 -1.51987,-0.580761 c -0.83594,-0.319418 -2.11146,-0.815597 -2.83451,-1.102623 -0.72304,-0.287026 -1.44821,-0.521865 -1.61149,-0.521865 -0.31569,0 -1.61664,0.378044 -22.761309,6.614259 -7.449354,2.19705 -14.980441,4.4178 -16.735749,4.935 -6.882042,2.0278 -9.380442,2.76358 -12.33775,3.63348 -1.691089,0.49743 -3.0724,0.94527 -3.069581,0.99519 0.0028,0.0499 3.348023,1.98123 7.433786,4.29179 4.085763,2.31055 9.845614,5.57348 12.799668,7.25093 2.954054,1.67746 9.364235,5.30909 14.244847,8.07029 4.880611,2.7612 9.028343,5.19066 9.217183,5.39879 0.188839,0.20814 0.3804,0.60584 0.425691,0.88378 0.04529,0.27794 0.539204,8.35169 1.097583,17.94167 1.199494,20.60086 2.698013,46.38112 2.760016,47.48282 l 0.04381,0.77841 -0.620751,0.0505 c -0.341414,0.0278 -0.708301,0.12318 -0.815305,0.21198 -0.107006,0.0888 -0.370606,0.11728 -0.585779,0.0633 -0.334359,-0.0839 -0.391226,-0.18663 -0.391226,-0.70661 0,-0.79048 -1.019969,-19.37026 -1.329423,-24.21683 -0.131213,-2.055 -0.339591,-5.2776 -0.463061,-7.16135 -0.123471,-1.88374 -0.574828,-9.76511 -1.003014,-17.51415 -0.889119,-16.09076 -0.8986,-16.22632 -1.146255,-16.39071 -0.50457,-0.33493 -4.182955,-2.44674 -4.26177,-2.44674 -0.05005,0 -0.449026,-0.22309 -0.88662,-0.49575 -0.437594,-0.27266 -1.636305,-0.96381 -2.663802,-1.53589 -1.91551,-1.06649 -3.365688,-1.8869 -5.672653,-3.20919 -1.940917,-1.11248 -4.165093,-2.36619 -5.719057,-3.22367 -0.755789,-0.41705 -1.934617,-1.09126 -2.619615,-1.49825 -0.684998,-0.40698 -1.87596,-1.08896 -2.646583,-1.51551 -1.701484,-0.94178 -11.247275,-6.35215 -12.765874,-7.23545 -0.599373,-0.34862 -1.930449,-1.10507 -2.957946,-1.681 -4.145456,-2.32357 -4.953914,-2.7895 -5.108554,-2.94414 -0.08882,-0.0888 -0.186433,-0.42911 -0.216919,-0.7562 -0.04326,-0.46421 0.02253,-0.66655 0.299802,-0.92202 0.234822,-0.21636 1.911909,-0.78542 4.94783,-1.67886 2.525931,-0.74336 5.85362,-1.726 7.394866,-2.18363 1.541246,-0.45764 4.273454,-1.26266 6.071574,-1.78894 1.79812,-0.52628 4.530328,-1.33232 6.071574,-1.79121 1.541246,-0.45888 4.833907,-1.43015 7.317025,-2.15838 4.014313,-1.17728 8.868669,-2.60813 22.290091,-6.570152 2.15584,-0.636403 4.12796,-1.157097 4.38252,-1.157097 0.25455,0 1.64071,0.455368 3.08035,1.011929 1.43965,0.556561 2.72515,1.009701 2.85667,1.006979 0.13153,-0.0027 0.37513,-0.10781 0.54134,-0.233523 0.16621,-0.125714 0.50813,-0.228571 0.75984,-0.228571 0.2517,0 2.61108,0.700566 5.24306,1.556814 4.49716,1.463041 5.29316,1.683971 5.29316,1.469121 0,-0.33652 6.13581,-21.39048 6.31311,-21.662344 0.12334,-0.189114 0.48725,-0.417396 0.80869,-0.507292 0.48203,-0.13481 19.39797,-2.84306 28.56576,-4.089844 l 2.44958,-0.333133 0.3916,0.367895 c 0.21539,0.202342 0.39161,0.503349 0.39161,0.668906 0,0.327224 -1.07762,3.531339 -7.39406,21.984992 -2.28604,6.67873 -4.42515,12.93136 -4.75356,13.89474 -0.55098,1.61624 -0.57616,1.76281 -0.32587,1.89676 0.14919,0.0799 1.49302,0.60907 2.9863,1.17605 1.49328,0.56698 2.87853,1.13753 3.07834,1.26789 0.83878,0.54725 0.86644,-0.96786 -0.52969,29.01386 -0.71172,15.28402 -1.39031,29.87626 -1.50798,32.42719 -0.2111,4.57615 -0.21902,4.64306 -0.59308,5.01276 -0.20852,0.20609 -4.96783,2.94369 -10.57626,6.08356 -26.96528,15.09648 -35.28255,19.75378 -39.21778,21.96016 -4.33365,2.42978 -4.963208,2.7192 -5.569408,2.56038 z"
       id="path302" /></g></svg>
