<?xml version="1.0" encoding="UTF-8" standalone="no"?>
<!-- Created with Inkscape (http://www.inkscape.org/) -->

<svg
   width="171.79411mm"
   height="151.94405mm"
   viewBox="0 0 171.79411 151.94405"
   version="1.1"
   id="svg5"
   xml:space="preserve"
   xmlns="http://www.w3.org/2000/svg"
   xmlns:svg="http://www.w3.org/2000/svg"><defs
     id="defs2"><filter
       style="color-interpolation-filters:sRGB"
       id="filter70"
       x="0"
       y="0"
       width="1.0198688"
       height="1.0258759"><feFlood
         result="flood"
         in="SourceGraphic"
         flood-opacity="1.000000"
         flood-color="rgb(0,109,114)"
         id="feFlood69" /><feGaussianBlur
         result="blur"
         in="SourceGraphic"
         stdDeviation="0.000000"
         id="feGaussianBlur69" /><feOffset
         result="offset"
         in="blur"
         dx="2.923077"
         dy="3.538461"
         id="feOffset69" /><feComposite
         result="comp1"
         operator="out"
         in="flood"
         in2="offset"
         id="feComposite69" /><feComposite
         result="comp2"
         operator="atop"
         in="comp1"
         in2="SourceGraphic"
         id="feComposite70" /></filter><filter
       style="color-interpolation-filters:sRGB"
       id="filter97"
       x="-0.028187899"
       y="0"
       width="1.0281879"
       height="1.068396"><feFlood
         result="flood"
         in="SourceGraphic"
         flood-opacity="1.000000"
         flood-color="rgb(161,125,0)"
         id="feFlood96" /><feGaussianBlur
         result="blur"
         in="SourceGraphic"
         stdDeviation="0.000000"
         id="feGaussianBlur96" /><feOffset
         result="offset"
         in="blur"
         dx="-4.153846"
         dy="9.384615"
         id="feOffset96" /><feComposite
         result="comp1"
         operator="out"
         in="flood"
         in2="offset"
         id="feComposite96" /><feComposite
         result="comp2"
         operator="atop"
         in="comp1"
         in2="SourceGraphic"
         id="feComposite97" /></filter></defs><g
     id="layer1"
     transform="translate(-19.558114,-79.267881)"><path
       id="path2"
       style="fill:#00adb5;fill-opacity:1;fill-rule:nonzero;stroke:none;stroke-width:1.5;stroke-linecap:round;stroke-linejoin:round;stroke-miterlimit:7.7;stroke-dasharray:none;stroke-opacity:1;paint-order:markers stroke fill;filter:url(#filter70)"
       d="m 87.836872,79.267886 c -5.481685,2.150986 -11.000632,4.406851 -16.283244,6.660575 -12.039778,5.136531 -29.720417,13.866981 -35.66449,16.640329 6.321041,-1.75155 25.435366,-6.595968 37.926367,-10.509438 4.876034,-1.52767 9.895459,-3.17547 14.862657,-4.87567 2.28262,1.26953 6.85818,3.47132 12.629208,5.13405 2.78661,0.80287 5.98604,1.5629 9.5467,2.13269 8.03197,1.28532 16.73546,1.41118 25.6589,-0.15296 5.06415,-0.88767 9.65975,-2.22877 13.59968,-3.76721 7.6653,-2.99313 13.45738,-7.274414 16.56437,-9.417518 -3.85005,1.513309 -10.02232,3.243826 -17.91984,4.958871 -3.96156,0.860307 -8.28876,1.638437 -13.07517,2.082047 -8.38846,0.77745 -16.22471,0.32847 -23.51588,-1.1033 -3.21429,-0.631185 -6.08673,-1.408823 -8.57312,-2.216398 C 96.230172,82.442509 91.116052,79.358875 91.266632,79.637372 Z M 29.447671,104.687 l -3.622518,7.02748 c -0.181373,0.35181 -0.348956,0.72195 -0.512114,1.12293 -0.15544,0.38202 -0.312343,0.80464 -0.471805,1.27227 -0.299322,0.87777 -0.619526,1.94584 -0.953431,3.20084 -0.616845,2.31845 -1.309979,5.39039 -1.95957,9.05165 -1.286662,7.25194 -2.33736,16.43676 -2.369364,26.43456 -0.03247,10.1423 0.983711,19.32996 2.762105,27.5177 0.347221,1.59861 0.739897,3.19781 1.178739,4.79144 1.95963,7.11628 4.651581,13.46291 7.771619,19.01951 3.082185,5.48918 6.144582,9.42797 8.143172,11.88971 -1.507987,-2.81579 -3.571382,-7.27082 -5.344893,-13.09171 -1.799416,-5.9059 -3.011142,-12.22949 -3.66541,-19.10839 -0.146102,-1.53611 -0.260959,-3.06369 -0.349849,-4.58267 -0.454256,-7.76255 -0.07314,-16.3245 1.363741,-25.53487 1.42418,-9.12899 3.625874,-17.22172 5.740218,-23.51588 0.52775,-1.57105 1.034757,-2.98254 1.505335,-4.23643 6.886676,1.73953 12.997154,2.4583 18.280538,2.70061 7.285009,0.33412 14.612977,-0.16238 21.685498,-1.04077 3.567278,-0.44303 7.237714,-1.07605 10.93008,-1.94406 8.09016,-1.90185 14.171398,-4.43926 17.771528,-6.4885 3.57098,-2.03264 3.84389,-3.00765 3.71347,-3.28817 -0.18467,-0.39723 -0.92671,-0.51249 -4.83227,-0.0176 -3.9559,0.50129 -10.018568,1.39324 -17.753948,1.62006 -3.523342,0.10331 -6.928921,0.0541 -10.217467,-0.12971 -6.588751,-0.3681 -12.94926,-1.56917 -19.274276,-3.14813 -5.799246,-1.44772 -13.995001,-3.84391 -22.434806,-6.93084 z" /><path
       style="fill:#ffc600;fill-opacity:1;stroke:none;stroke-width:1.5;stroke-linecap:round;stroke-linejoin:round;stroke-miterlimit:7.7;stroke-dasharray:none;stroke-opacity:1;paint-order:markers stroke fill;filter:url(#filter97)"
       d="m 44.312462,217.90589 c 0.222548,0.034 0.70821,-0.88675 2.421096,-5.13201 1.598467,-3.96168 4.860771,-12.01558 10.443776,-21.57356 7.928674,-13.57373 18.750921,-27.23794 33.628868,-40.14715 1.994,-1.73014 4.04142,-3.43301 6.14318,-5.10639 -1.18457,5.5187 -2.03822,11.28967 -2.79731,17.26704 -0.23229,1.82911 -0.46424,3.76811 -0.68829,5.77708 -0.82441,7.39211 -2.32305,15.77471 -2.91471,28.28554 l -1.16107,24.55086 13.849908,-21.99793 c 16.16293,-25.67175 38.82125,-49.25513 56.95046,-66.09091 13.77239,-12.7898 23.44154,-20.45349 27.76033,-24.37583 4.30075,-3.90595 3.83079,-4.51501 2.35463,-6.18055 -0.92888,-1.04805 -2.50336,-2.83548 -3.95945,-4.576768 -1.45608,-1.74129 -2.84977,-3.38877 -3.46879,-4.11291 -0.61903,-0.72415 -2.02633,-2.35999 -3.50987,-4.07789 -1.48354,-1.7179 -2.9895,-3.56374 -3.91839,-4.611801 -1.4291,-1.612462 -2.2911,-2.136851 -6.9603,2.087291 -4.1192,3.72654 -13.95394,13.914598 -26.3483,28.805918 -13.22908,15.8942 -29.03171,36.79738 -41.83883,59.41167 -0.19608,-2.39302 -0.24856,-4.59201 -0.15934,-6.59004 0.0859,-1.92452 0.2445,-3.75371 0.45933,-5.49668 1.29409,-10.49948 4.89814,-19.37153 8.43843,-27.88823 l 5.70197,-13.71692 -12.40981,8.36617 c -6.253108,4.21559 -12.073528,8.75067 -17.436787,13.59788 -15.327584,13.85276 -26.112947,29.36425 -32.910293,44.1224 -4.922992,10.68862 -6.901207,19.10975 -7.593785,23.63276 -0.712762,4.65483 -0.2992,5.73688 -0.07666,5.77096 z"
       id="path4" /></g></svg>
