<?xml version="1.0" encoding="UTF-8"?>
<svg id="Layer_1" data-name="Layer 1" xmlns="http://www.w3.org/2000/svg" viewBox="0 0 427.71 417.45">
  <defs>
    <style>
      .cls-1 {
        stroke: #8ba2d3;
      }

      .cls-1, .cls-2, .cls-3, .cls-4 {
        fill: none;
        stroke-linecap: round;
        stroke-linejoin: bevel;
      }

      .cls-1, .cls-4 {
        stroke-width: 4px;
      }

      .cls-2 {
        stroke: #efed86;
      }

      .cls-2, .cls-3 {
        stroke-width: 2px;
      }

      .cls-3 {
        stroke: #fbb274;
      }

      .cls-4 {
        stroke: #97d7df;
      }
    </style>
  </defs>
  <g id="_3_wire" data-name="3_wire">
    <path class="cls-3" d="M43.19,80.13L74.85,4.04l-31.66,76.09Z"/>
    <g>
      <polygon class="cls-3" points="74.85 4.04 74.85 79.11 154.77 79.11 74.85 4.04"/>
      <polyline class="cls-3" points="74.85 79.11 143.78 105.66 53.4 133.23 164.27 122.95 74.4 135.77 182.49 150.68 101.34 154.71 188.94 174.89 103.65 182.95 189.23 204.21"/>
    </g>
  </g>
  <polyline id="D_wire" class="cls-2" points="237.52 240.47 265.32 329.52 309.41 323.35 237.52 240.47 352.14 307.69 285.48 237.11 392.17 275.98 320.48 214.86 418.27 226.72 331.37 182.42 425.72 164.64 329.84 151.36 413.01 111.71 311.75 130.15 380.54 66.86 277.87 116.08 338.33 41.59 241.31 111.67 289.32 28.3 193.09 113.83"/>
  <polygon id="_3" data-name="3" class="cls-4" points="44.72 2 186.68 2 143.78 105.66 167.12 125.36 182.49 150.68 188.94 174.89 189.23 204.21 1.83 416.13 92.72 212.64 103.65 182.95 101.34 154.71 74.4 135.77 53.4 133.23 74.85 79.11 43.19 80.13 44.72 2"/>
  <polygon id="D" class="cls-1" points="233.95 28.3 289.32 28.3 338.33 41.59 380.54 66.86 413.01 111.71 425.72 164.64 418.27 226.72 392.17 275.98 352.14 307.69 309.41 323.35 265.32 329.52 237.52 328.81 237.52 240.47 285.48 237.11 320.48 214.86 331.37 182.42 329.84 151.36 311.75 130.15 277.87 116.08 241.31 111.67 193.09 113.83 233.95 28.3"/>
</svg>