<?xml version="1.0" encoding="UTF-8" standalone="no"?>
<!-- Created with Inkscape (http://www.inkscape.org/) -->

<svg
   width="512"
   height="512"
   viewBox="0 0 135.46667 135.46666"
   version="1.1"
   id="svg5"
   xml:space="preserve"
   sodipodi:docname="logo_minimal.svg"
   inkscape:version="1.4 (86a8ad7, 2024-10-11)"
   xmlns:inkscape="http://www.inkscape.org/namespaces/inkscape"
   xmlns:sodipodi="http://sodipodi.sourceforge.net/DTD/sodipodi-0.dtd"
   xmlns="http://www.w3.org/2000/svg"
   xmlns:svg="http://www.w3.org/2000/svg"><sodipodi:namedview
     id="namedview1"
     pagecolor="#ffffff"
     bordercolor="#000000"
     borderopacity="0.25"
     inkscape:showpageshadow="2"
     inkscape:pageopacity="0.0"
     inkscape:pagecheckerboard="0"
     inkscape:deskcolor="#d1d1d1"
     inkscape:document-units="mm"
     inkscape:zoom="0.87704974"
     inkscape:cx="254.83161"
     inkscape:cy="265.09329"
     inkscape:window-width="1920"
     inkscape:window-height="991"
     inkscape:window-x="-9"
     inkscape:window-y="-9"
     inkscape:window-maximized="1"
     inkscape:current-layer="svg5" /><defs
     id="defs2" /><g
     id="layer1"
     transform="matrix(0.69781054,0,0,0.69781054,-11.466394,-32.795803)"
     style="stroke-width:1.43305"><path
       style="fill:#ffb373;fill-opacity:1;stroke:none;stroke-width:5.68743;stroke-linecap:round;stroke-linejoin:round;stroke-miterlimit:7.7;paint-order:fill markers stroke"
       d="M 46.73979,60.699265 105.3025,60.15319 88.658614,99.868485 c 0,0 21.942436,13.217375 17.544666,39.807005 -4.39777,26.58963 -82.541899,85.17788 -82.541899,85.17788 0,0 82.546729,-112.33018 26.859236,-113.66974 6.151997,-15.41244 7.271909,-20.380477 7.271909,-20.380477 L 39.871439,66.497483 Z"
       id="path4" /><path
       style="fill:#86f0f0;fill-opacity:1;stroke:none;stroke-width:5.68743;stroke-linecap:round;stroke-linejoin:round;stroke-miterlimit:7.7;paint-order:fill markers stroke"
       d="m 39.850615,66.440245 54.735393,-0.06766 -16.643889,39.715295 c 0,0 21.176982,10.8253 16.779208,37.41493 -4.397777,26.58963 -71.183312,81.54358 -71.183312,81.54358 0,0 75.780926,-106.78222 20.093427,-108.12178 6.151997,-15.41244 7.271909,-20.380477 7.271909,-20.380477 L 39.612757,96.257085 Z"
       id="path1" /><path
       style="fill:#f0ee86;fill-opacity:1;stroke:none;stroke-width:5.68743;stroke-linecap:round;stroke-linejoin:round;stroke-miterlimit:7.7;paint-order:fill markers stroke"
       d="m 104.52179,95.630072 c 0,0 -0.2258,-10.951104 7.44239,-28.010449 23.271,-0.37028 84.73418,-7.695325 85.24919,43.977757 0.70209,70.44435 -62.92202,69.68783 -84.57261,67.52277 1.35316,-20.02679 0.88976,-34.27462 0.88976,-34.27462 0,0 49.03456,8.1866 47.95939,-26.34702 -0.82604,-26.531364 -30.8521,-22.462485 -56.96812,-22.868438 z"
       id="path3" /><path
       style="fill:#86a4f0;fill-opacity:1;stroke:none;stroke-width:5.68743;stroke-linecap:round;stroke-linejoin:round;stroke-miterlimit:7.7;paint-order:fill markers stroke"
       d="m 96.34512,100.53992 c 0,0 7.48722,-16.228435 15.15541,-33.28778 23.271,-0.37028 77.02116,-2.417994 77.53617,49.25509 0.70209,70.44435 -55.47963,70.49973 -77.13022,68.33467 1.35316,-20.02679 1.6238,-35.1822 1.6238,-35.1822 0,0 40.85813,8.28228 39.78296,-26.25134 -0.82604,-26.531366 -30.8521,-22.46249 -56.96812,-22.86844 z"
       id="path2" /></g></svg>
